<?xml version="1.0" encoding="UTF-8" standalone="no"?>
<!DOCTYPE svg PUBLIC "-//W3C//DTD SVG 1.1//EN" "http://www.w3.org/Graphics/SVG/1.1/DTD/svg11.dtd">
<svg width="100%" height="100%" viewBox="0 0 150 150" version="1.1" xmlns="http://www.w3.org/2000/svg" xmlns:xlink="http://www.w3.org/1999/xlink" xml:space="preserve" xmlns:serif="http://www.serif.com/" style="fill-rule:evenodd;clip-rule:evenodd;stroke-linejoin:round;stroke-miterlimit:2;">
    <g transform="matrix(1.12726,0,0,1.12726,-9.54451,-19.089)">
        <g>
            <path d="M141.533,39.555C141.533,27.07 131.397,16.934 118.912,16.934L31.088,16.934C18.603,16.934 8.467,27.07 8.467,39.555L8.467,127.379C8.467,139.864 18.603,150 31.088,150L118.912,150C131.397,150 141.533,139.864 141.533,127.379L141.533,39.555Z" style="fill:none;"/>
            <path d="M120.777,91.275C118.114,94.088 110.579,100.769 106.259,102.528C95.107,107.3 84.507,101.724 70.743,108.506L62.956,101.824C58.234,103.633 45.926,114.936 40.3,119.005C28.444,121.115 19.201,114.484 8.953,113.73L8.802,132.016C14.278,135.834 13.273,138.245 13.474,145.63C14.73,146.082 14.981,146.232 15.936,146.835L17.543,148.242L34.221,148.493C33.066,146.383 33.669,148.292 33.167,144.474C53.311,142.364 45.323,136.336 53.713,135.181L61.7,134.879C73.505,134.779 70.893,129.956 80.94,126.791C81.895,125.485 81.342,126.188 82.849,124.631C93.097,113.68 92.093,112.324 109.574,118.452L122.535,123.225C124.595,117.247 123.138,114.835 127.81,109.862C131.427,106.044 135.245,104.587 140.218,103.733L139.414,90.873L133.235,89.316C127.91,89.065 124.746,90.019 120.777,91.275Z" style="fill:rgb(140,92,91);"/>
            <path d="M10.159,22.201L15.032,21.197L21.512,41.944C17.342,37.222 13.625,33.806 9.807,29.887L10.109,42.396C12.419,43.049 14.68,43.652 17.091,44.154L24.677,46.365L19,50.032C19.251,50.383 20.206,52.343 20.658,52.996L25.882,53.096L31.408,39.633C31.609,39.181 31.81,38.829 32.011,38.427L33.367,36.016C37.889,47.721 47.484,49.68 52.055,53.398C53.663,54.704 54.416,55.658 56.074,57.065C59.339,59.727 61.399,62.641 64.915,64.047C66.724,63.746 66.272,63.997 68.482,62.44C72.451,59.526 66.02,62.189 71.797,59.576C67.477,55.407 68.482,60.933 64.513,47.269C62.504,40.437 63.509,38.277 63.71,29.988C62.253,29.485 63.408,30.088 61.549,28.983C51.452,23.005 51.904,23.608 49.041,17.077L10.41,17.178L10.159,22.201Z" style="fill:rgb(25,150,124);"/>
            <path d="M57.38,87.256L56.727,91.677L37.788,93.033C33.719,97.454 33.167,105.743 35.678,112.826C37.889,119.055 38.039,117.849 40.3,119.005C45.926,114.936 58.234,103.633 62.956,101.824L70.743,108.506C84.507,101.724 95.107,107.3 106.259,102.528C106.46,99.714 108.118,102.377 104.551,98.911C101.386,94.289 99.728,92.079 96.413,87.357C93.65,83.388 90.786,80.525 89.078,76.606L88.727,76.305L87.019,76.305C84.005,77.561 78.127,77.259 73.757,78.565C68.13,80.273 68.482,81.278 60.997,81.78C66.121,81.931 63.157,81.178 64.312,84.895C59.892,87.005 63.559,85.9 58.987,89.316C57.43,88.06 56.325,90.974 57.38,87.256Z" style="fill:rgb(89,94,92);"/>
            <path d="M140.218,128.55L140.369,148.543L116.859,147.538L113.091,147.338C112.287,138.597 114.146,144.273 109.826,141.912C106.862,140.254 98.171,137.542 92.193,133.322C84.758,134.528 89.38,132.568 85.06,137.642C82.749,140.355 82.9,139.953 80.739,141.41C80.237,142.364 82.046,145.931 73.907,140.556C70.089,138.044 71.195,137.994 66.774,136.889L63.207,147.89L34.221,148.493L17.543,148.242L9.154,148.493L9.455,150L141.373,150L141.373,104.085L140.218,103.733L140.218,128.55Z" style="fill:rgb(218,150,103);"/>
            <path d="M92.746,19.589C108.771,20.895 102.692,26.371 112.79,31.043C119.571,34.258 116.507,31.746 121.179,37.322C123.59,40.135 125.8,42.346 127.81,45.259C136.902,50.283 127.458,53.95 140.72,56.964C141.072,55.005 141.273,52.945 141.373,50.886L141.373,43.25C141.172,39.03 140.72,34.81 140.168,30.741C136.953,29.335 129.769,26.823 125.449,26.321L125.399,18.534L83.804,17.931L92.746,19.589Z" style="fill:rgb(173,201,149);"/>
            <path d="M63.71,29.988C63.509,38.277 62.504,40.437 64.513,47.269C68.482,60.933 67.477,55.407 71.797,59.576L76.721,63.646C81.995,62.138 79.484,50.534 80.287,45.46L89.681,47.821L89.681,47.972C90.786,44.004 91.64,37.071 92.947,34.358C90.786,36.368 85.612,38.528 81.593,39.281C77.223,35.263 76.972,32.801 71.797,29.485C73.656,21.046 75.766,26.22 70.994,17.128L67.929,17.027L70.089,19.74C68.381,23.357 66.673,27.426 63.71,29.988Z" style="fill:rgb(59,179,131);"/>
            <path d="M89.681,47.972L109.524,48.073L110.68,44.556C107.414,39.181 99.025,34.861 93.248,30.39L92.746,19.589L83.804,17.931L70.994,17.128C75.766,26.22 73.656,21.046 71.797,29.485C76.972,32.801 77.223,35.263 81.593,39.281C85.612,38.528 90.786,36.368 92.947,34.358C91.64,37.071 90.786,44.004 89.681,47.972Z" style="fill:rgb(87,186,135);"/>
            <path d="M118.567,52.744L115,70.478L127.508,80.826C131.778,79.319 132.13,77.812 134.491,75.401C137.355,72.437 139.364,72.135 140.871,67.614L140.57,58.773L140.72,56.964C127.458,53.95 136.902,50.283 127.81,45.259C126.504,49.278 122.033,50.785 118.567,52.744Z" style="fill:rgb(149,166,125);"/>
            <path d="M9.054,107.903L8.953,113.73C19.201,114.484 28.444,121.115 40.3,119.005C38.039,117.849 37.889,119.055 35.678,112.826C33.167,105.743 33.719,97.454 37.788,93.033L37.386,92.882L27.339,89.065L24.978,89.165C24.878,93.385 24.074,93.335 21.964,95.746C14.027,104.838 24.677,105.09 9.054,107.903Z" style="fill:rgb(104,122,107);"/>
            <path d="M116.507,130.258C115.603,137.893 111.634,141.41 116.859,147.538L140.369,148.543L140.218,128.55C128.011,128.951 135.546,131.614 127.659,127.896C122.535,125.485 120.224,128.399 116.507,130.258Z" style="fill:rgb(211,75,78);"/>
            <path d="M26.134,71.482L28.796,73.994C30.856,70.126 34.824,74.496 38.24,77.611L39.697,78.917C41.053,80.324 40.652,79.922 41.757,81.429L46.228,83.689C46.177,78.616 45.424,81.63 48.689,79.771C50.799,78.565 52.909,78.917 55.421,78.766L55.521,78.616L50.598,70.729C49.443,67.815 48.639,65.705 47.634,62.239C40.25,60.631 32.714,56.562 25.882,53.096L26.134,71.482Z" style="fill:rgb(120,180,153);"/>
            <path d="M9.255,78.716L26.134,71.482L25.882,53.096L20.658,52.996C19.603,54.955 19.452,55.306 18.096,57.215L16.991,54.402C16.941,54.051 16.991,52.895 16.941,52.544C15.835,45.912 13.675,50.333 10.109,42.396L9.807,29.887L10.159,22.201L10.41,17.178C7.647,22.352 8.802,68.77 9.255,78.716Z" style="fill:rgb(72,154,150);"/>
            <path d="M109.574,118.452C110.077,126.138 111.885,122.923 114.498,130.006L116.507,130.258C120.224,128.399 122.535,125.485 127.659,127.896C135.546,131.614 128.011,128.951 140.218,128.55L140.218,103.733C135.245,104.587 131.427,106.044 127.81,109.862C123.138,114.835 124.595,117.247 122.535,123.225L109.574,118.452Z" style="fill:rgb(181,89,86);"/>
            <path d="M34.221,148.493L63.207,147.89L66.774,136.889C71.195,137.994 70.089,138.044 73.907,140.556C82.046,145.931 80.237,142.364 80.739,141.41L80.94,126.791C70.893,129.956 73.505,134.779 61.7,134.879L53.713,135.181C45.323,136.336 53.311,142.364 33.167,144.474C33.669,148.292 33.066,146.383 34.221,148.493Z" style="fill:rgb(172,116,93);"/>
            <path d="M64.915,64.047L64.413,66.609L55.521,78.616L55.421,78.766L55.119,80.926C55.471,81.278 55.923,81.178 56.074,82.082C56.174,83.036 56.626,82.986 56.777,83.539C57.531,86.402 57.179,83.187 57.38,87.256C56.325,90.974 57.43,88.06 58.987,89.316C63.559,85.9 59.892,87.005 64.312,84.895C63.157,81.178 66.121,81.931 60.997,81.78C68.482,81.278 68.13,80.273 73.757,78.565C78.127,77.259 84.005,77.561 87.019,76.305C84.356,71.532 81.443,68.77 78.83,64.751C76.319,65.002 76.721,65.755 76.721,63.646L71.797,59.576C66.02,62.189 72.451,59.526 68.482,62.44C66.272,63.997 66.724,63.746 64.915,64.047Z" style="fill:rgb(59,122,116);"/>
            <path d="M25.882,53.096C32.714,56.562 40.25,60.631 47.634,62.239L64.413,66.609L64.915,64.047C61.399,62.641 59.339,59.727 56.074,57.065C54.416,55.658 53.663,54.704 52.055,53.398C47.484,49.68 37.889,47.721 33.367,36.016L32.011,38.427C31.81,38.829 31.609,39.181 31.408,39.633L25.882,53.096Z" style="fill:rgb(55,153,134);"/>
            <path d="M80.94,126.791C89.732,129.705 82.95,131.212 92.193,132.016L114.498,130.006C111.885,122.923 110.077,126.138 109.574,118.452C92.093,112.324 93.097,113.68 82.849,124.631C81.342,126.188 81.895,125.485 80.94,126.791Z" style="fill:rgb(172,116,93);"/>
            <path d="M110.68,44.556C114.297,43.099 121.832,44.405 127.81,45.259C125.8,42.346 123.59,40.135 121.179,37.322C116.507,31.746 119.571,34.258 112.79,31.043C102.692,26.371 108.771,20.895 92.746,19.589L93.248,30.39C99.025,34.861 107.414,39.181 110.68,44.556Z" style="fill:rgb(121,201,146);"/>
            <path d="M95.961,67.715C103.898,66.81 102.943,59.677 118.567,52.744C115.452,49.58 112.79,49.328 109.524,48.073L89.681,47.972L89.681,47.821C92.595,54.503 93.298,60.832 95.961,67.715Z" style="fill:rgb(82,163,121);"/>
            <path d="M89.078,76.606C90.786,80.525 93.65,83.388 96.413,87.357C99.728,92.079 101.386,94.289 104.551,98.911C107.615,93.385 102.089,86.251 99.126,75.35C105.154,79.62 110.981,86 118.014,88.01C116.206,83.438 114.598,82.233 111.534,78.917C109.876,77.159 109.072,76.405 107.666,74.697C105.455,71.884 106.108,72.738 104.752,70.327C99.176,72.587 94.303,74.346 89.078,76.606Z" style="fill:rgb(104,122,107);"/>
            <path d="M9.054,107.903C24.677,105.09 14.027,104.838 21.964,95.746C24.074,93.335 24.878,93.385 24.978,89.165L9.305,81.479L9.054,107.903Z" style="fill:rgb(89,94,92);"/>
            <path d="M118.014,88.01L120.777,91.275C124.746,90.019 127.91,89.065 133.235,89.316C132.08,87.256 131.929,87.206 130.422,85.146C130.171,84.795 129.468,83.89 129.216,83.589C127.961,81.73 128.815,83.237 127.508,80.826L115,70.478L104.752,70.327C106.108,72.738 105.455,71.884 107.666,74.697C109.072,76.405 109.876,77.159 111.534,78.917C114.598,82.233 116.206,83.438 118.014,88.01Z" style="fill:rgb(131,135,109);"/>
            <path d="M76.721,63.646C76.721,65.755 76.319,65.002 78.83,64.751C86.366,64.901 89.48,65.956 95.961,67.715C93.298,60.832 92.595,54.503 89.681,47.821L80.287,45.46C79.484,50.534 81.995,62.138 76.721,63.646Z" style="fill:rgb(55,153,134);"/>
            <path d="M104.551,98.911C108.118,102.377 106.46,99.714 106.259,102.528C110.579,100.769 118.114,94.088 120.777,91.275L118.014,88.01C110.981,86 105.154,79.62 99.126,75.35C102.089,86.251 107.615,93.385 104.551,98.911Z" style="fill:rgb(89,94,92);"/>
            <path d="M95.961,67.715C95.257,73.09 93.248,72.537 88.727,76.305L89.078,76.606C94.303,74.346 99.176,72.587 104.752,70.327L115,70.478L118.567,52.744C102.943,59.677 103.898,66.81 95.961,67.715Z" style="fill:rgb(110,153,115);"/>
            <path d="M9.255,78.716L9.305,81.479L24.978,89.165L27.339,89.065L28.595,74.647L28.796,73.994L26.134,71.482L9.255,78.716Z" style="fill:rgb(89,136,132);"/>
            <path d="M127.508,80.826C128.815,83.237 127.961,81.73 129.216,83.589C129.468,83.89 130.171,84.795 130.422,85.146C131.929,87.206 132.08,87.256 133.235,89.316L139.414,90.873L140.218,103.733L141.373,104.085L141.373,58.773L140.57,58.773L140.871,67.614C139.364,72.135 137.355,72.437 134.491,75.401C132.13,77.812 131.778,79.319 127.508,80.826Z" style="fill:rgb(166,145,115);"/>
            <path d="M92.193,132.016L92.193,133.322C98.171,137.542 106.862,140.254 109.826,141.912C114.146,144.273 112.287,138.597 113.091,147.338L116.859,147.538C111.634,141.41 115.603,137.893 116.507,130.258L114.498,130.006L92.193,132.016Z" style="fill:rgb(209,116,91);"/>
            <path d="M63.71,29.988C66.673,27.426 68.381,23.357 70.089,19.74L67.929,17.027L49.041,17.077C51.904,23.608 51.452,23.005 61.549,28.983C63.408,30.088 62.253,29.485 63.71,29.988Z" style="fill:rgb(31,179,130);"/>
            <path d="M41.656,82.534L37.386,92.882L37.788,93.033L56.727,91.677L57.38,87.256C57.179,83.187 57.531,86.402 56.777,83.539C56.626,82.986 56.174,83.036 56.074,82.082C55.923,81.178 55.471,81.278 55.119,80.926C54.366,84.543 55.27,86.251 51.402,86.302L47.283,84.443C47.082,83.941 46.579,83.941 46.228,83.689L41.757,81.429L41.656,82.534Z" style="fill:rgb(89,136,132);"/>
            <path d="M55.521,78.616L64.413,66.609L47.634,62.239C48.639,65.705 49.443,67.815 50.598,70.729L55.521,78.616Z" style="fill:rgb(117,164,138);"/>
            <path d="M28.595,74.647L29.449,76.908C29.901,81.931 28.746,83.288 28.545,88.562C37.487,85.799 33.719,85.85 41.656,82.534L41.757,81.429C40.652,79.922 41.053,80.324 39.697,78.917L38.24,77.611C34.824,74.496 30.856,70.126 28.796,73.994L28.595,74.647Z" style="fill:rgb(146,180,147);"/>
            <path d="M87.019,76.305L88.727,76.305C93.248,72.537 95.257,73.09 95.961,67.715C89.48,65.956 86.366,64.901 78.83,64.751C81.443,68.77 84.356,71.532 87.019,76.305Z" style="fill:rgb(83,140,111);"/>
            <path d="M110.68,44.556L109.524,48.073C112.79,49.328 115.452,49.58 118.567,52.744C122.033,50.785 126.504,49.278 127.81,45.259C121.832,44.405 114.297,43.099 110.68,44.556Z" style="fill:rgb(117,164,138);"/>
            <path d="M10.159,22.201L9.807,29.887C13.625,33.806 17.342,37.222 21.512,41.944L15.032,21.197L10.159,22.201Z" style="fill:rgb(24,126,122);"/>
            <path d="M80.739,141.41C82.9,139.953 82.749,140.355 85.06,137.642C89.38,132.568 84.758,134.528 92.193,133.322L92.193,132.016C82.95,131.212 89.732,129.705 80.94,126.791L80.739,141.41Z" style="fill:rgb(199,134,93);"/>
            <path d="M27.339,89.065L37.386,92.882L41.656,82.534C33.719,85.85 37.487,85.799 28.545,88.562C28.746,83.288 29.901,81.931 29.449,76.908L28.595,74.647L27.339,89.065Z" style="fill:rgb(117,164,138);"/>
            <path d="M20.658,52.996C20.206,52.343 19.251,50.383 19,50.032L24.677,46.365L17.091,44.154C14.68,43.652 12.419,43.049 10.109,42.396C13.675,50.333 15.835,45.912 16.941,52.544C16.991,52.895 16.941,54.051 16.991,54.402L18.096,57.215C19.452,55.306 19.603,54.955 20.658,52.996Z" style="fill:rgb(55,153,134);"/>
            <path d="M9.154,148.493L17.543,148.242L15.936,146.835C14.981,146.232 14.73,146.082 13.474,145.63C13.273,138.245 14.278,135.834 8.802,132.016L9.154,148.493Z" style="fill:rgb(151,73,77);"/>
            <path d="M46.228,83.689C46.579,83.941 47.082,83.941 47.283,84.443L51.402,86.302C55.27,86.251 54.366,84.543 55.119,80.926L55.421,78.766C52.909,78.917 50.799,78.565 48.689,79.771C45.424,81.63 46.177,78.616 46.228,83.689Z" style="fill:rgb(117,164,138);"/>
        </g>
    </g>
</svg>
