<?xml version="1.0" encoding="UTF-8" standalone="no"?>
<!DOCTYPE svg PUBLIC "-//W3C//DTD SVG 1.1//EN" "http://www.w3.org/Graphics/SVG/1.1/DTD/svg11.dtd">
<svg width="100%" height="100%" viewBox="0 0 150 150" version="1.1" xmlns="http://www.w3.org/2000/svg" xmlns:xlink="http://www.w3.org/1999/xlink" xml:space="preserve" xmlns:serif="http://www.serif.com/" style="fill-rule:evenodd;clip-rule:evenodd;stroke-linejoin:round;stroke-miterlimit:2;">
    <g transform="matrix(1.12726,0,0,1.12726,-9.54451,-19.089)">
        <g>
            <g>
                <circle cx="75" cy="83.467" r="66.533" style="fill:rgb(43,46,58);"/>
                <g>
                    <path d="M60.707,54.198C47.19,51.736 36.502,54.312 32.242,61.69C29.064,67.196 29.972,74.495 34.446,82.298C34.689,82.743 35.156,83.021 35.663,83.021C36.424,83.021 37.049,82.395 37.049,81.634C37.049,81.382 36.981,81.135 36.851,80.919C32.821,73.89 32.037,67.591 34.643,63.077C38.182,56.948 47.715,54.649 60.21,56.925C60.285,56.937 60.361,56.944 60.438,56.944C61.198,56.944 61.824,56.318 61.824,55.557C61.824,54.898 61.354,54.326 60.707,54.198ZM41.475,91.782C46.941,97.788 54.042,103.422 62.14,108.097C81.748,119.418 102.623,122.444 112.91,115.429C113.3,115.173 113.536,114.737 113.536,114.271C113.536,113.51 112.91,112.884 112.149,112.884C111.862,112.884 111.583,112.973 111.348,113.139C102.141,119.417 82.312,116.543 63.526,105.697C55.67,101.161 48.794,95.705 43.526,89.916C43.263,89.625 42.889,89.459 42.497,89.459C41.736,89.459 41.111,90.084 41.111,90.845C41.111,91.192 41.241,91.526 41.475,91.782Z" style="fill:rgb(159,234,249);fill-rule:nonzero;"/>
                    <path d="M109.628,90.096C118.479,79.64 121.57,69.123 117.319,61.761C114.191,56.343 107.579,53.483 98.791,53.369C98.031,53.37 97.407,53.995 97.407,54.755C97.407,55.501 98.009,56.12 98.755,56.141C106.658,56.243 112.355,58.708 114.918,63.147C118.449,69.263 115.693,78.641 107.512,88.305C107.294,88.557 107.174,88.879 107.174,89.212C107.174,89.973 107.8,90.598 108.56,90.598C108.973,90.598 109.365,90.414 109.628,90.096ZM86.882,54.659C78.879,56.374 70.361,59.727 62.18,64.449C41.939,76.136 28.735,93.368 30.568,105.864C30.66,106.548 31.251,107.065 31.942,107.065C32.703,107.065 33.329,106.439 33.329,105.679C33.329,105.606 33.323,105.533 33.311,105.461C31.683,94.366 44.199,78.032 63.567,66.85C71.502,62.268 79.75,59.022 87.462,57.37C88.11,57.242 88.581,56.669 88.581,56.01C88.581,55.249 87.955,54.623 87.194,54.623C87.089,54.623 86.984,54.635 86.882,54.659Z" style="fill:rgb(159,234,249);fill-rule:nonzero;"/>
                    <path d="M54.089,114.526C58.717,127.448 66.288,135.404 74.801,135.404C81.01,135.404 86.754,131.172 91.234,123.72C91.37,123.501 91.442,123.247 91.442,122.989C91.442,122.229 90.816,121.603 90.056,121.603C89.563,121.603 89.105,121.866 88.858,122.292C84.832,128.989 79.887,132.632 74.801,132.632C67.729,132.632 60.977,125.536 56.699,113.592C56.51,113.028 55.979,112.646 55.385,112.646C54.624,112.646 53.998,113.272 53.998,114.032C53.998,114.201 54.029,114.368 54.089,114.526ZM96.359,111.998C98.755,104.343 100.042,95.511 100.042,86.309C100.042,63.345 92.004,43.549 80.557,38.466C80.387,38.395 80.205,38.359 80.021,38.359C79.261,38.359 78.635,38.984 78.635,39.745C78.635,40.281 78.946,40.772 79.432,41C89.642,45.534 97.269,64.32 97.269,86.309C97.269,95.237 96.023,103.789 93.714,111.17C93.668,111.31 93.645,111.456 93.645,111.603C93.645,112.364 94.27,112.989 95.031,112.989C95.643,112.989 96.185,112.584 96.36,111.998L96.359,111.998ZM122.465,110.64C122.465,106.976 119.495,104.006 115.831,104.006C112.167,104.006 109.197,106.976 109.197,110.64C109.197,114.304 112.167,117.275 115.831,117.275C119.495,117.275 122.465,114.304 122.465,110.64ZM119.693,110.64C119.693,112.759 117.95,114.503 115.831,114.503C113.712,114.503 111.969,112.759 111.969,110.64C111.969,108.522 113.712,106.778 115.831,106.778C117.95,106.778 119.693,108.522 119.693,110.64ZM33.675,117.275C37.34,117.275 40.31,114.304 40.31,110.64C40.31,106.976 37.339,104.006 33.675,104.006C30.012,104.006 27.041,106.976 27.041,110.64C27.041,114.304 30.012,117.275 33.675,117.275ZM33.675,114.503C31.557,114.503 29.813,112.759 29.813,110.64C29.813,108.522 31.557,106.778 33.675,106.778C35.794,106.778 37.537,108.522 37.537,110.64C37.537,112.759 35.794,114.503 33.675,114.503Z" style="fill:rgb(159,234,249);fill-rule:nonzero;"/>
                    <path d="M74.801,45.233C78.465,45.233 81.435,42.263 81.435,38.599C81.435,34.935 78.465,31.965 74.801,31.965C71.137,31.965 68.167,34.935 68.167,38.599C68.167,42.263 71.137,45.233 74.801,45.233ZM74.801,42.461C72.682,42.461 70.939,40.718 70.939,38.599C70.939,36.481 72.682,34.737 74.801,34.737C76.92,34.737 78.663,36.481 78.663,38.599C78.663,40.718 76.92,42.461 74.801,42.461ZM75.814,91C73.223,91.56 70.67,89.913 70.109,87.322C69.554,84.749 71.214,82.173 73.787,81.617C76.378,81.057 78.931,82.704 79.493,85.295C80.052,87.886 78.406,90.439 75.814,91Z" style="fill:rgb(159,234,249);fill-rule:nonzero;"/>
                </g>
            </g>
        </g>
    </g>
</svg>
