<?xml version="1.0" encoding="UTF-8" standalone="no"?>
<!DOCTYPE svg PUBLIC "-//W3C//DTD SVG 1.1//EN" "http://www.w3.org/Graphics/SVG/1.1/DTD/svg11.dtd">
<svg width="100%" height="100%" viewBox="0 0 150 150" version="1.1" xmlns="http://www.w3.org/2000/svg" xmlns:xlink="http://www.w3.org/1999/xlink" xml:space="preserve" xmlns:serif="http://www.serif.com/" style="fill-rule:evenodd;clip-rule:evenodd;stroke-linejoin:round;stroke-miterlimit:2;">
    <g transform="matrix(1.12549,0,0,1.12549,-9.41137,-18.8239)">
        <g>
            <path d="M141.638,39.382C141.638,26.877 131.485,16.725 118.981,16.725L31.019,16.725C18.515,16.725 8.362,26.877 8.362,39.382L8.362,127.343C8.362,139.848 18.515,150 31.019,150L118.981,150C131.485,150 141.638,139.848 141.638,127.343L141.638,39.382Z" style="fill:rgb(255,110,0);"/>
            <path d="M75,49.176C86.799,49.176 96.366,58.744 96.366,70.543C96.366,82.161 89.365,83.515 88.049,96.182C88.049,97.365 87.095,98.319 85.912,98.319L64.088,98.319C62.905,98.319 61.951,97.365 61.951,96.182L61.947,96.182C60.635,83.515 53.634,82.161 53.634,70.543C53.634,58.744 63.201,49.176 75,49.176M85.683,100.455C86.866,100.455 87.82,101.409 87.82,102.592C87.82,103.775 86.866,104.729 85.683,104.729L64.317,104.729C63.134,104.729 62.18,103.775 62.18,102.592C62.18,101.409 63.134,100.455 64.317,100.455L85.683,100.455M85.683,106.865C86.866,106.865 87.82,107.819 87.82,109.002C87.82,110.185 86.866,111.139 85.683,111.139L64.317,111.139C63.134,111.139 62.18,110.185 62.18,109.002C62.18,107.819 63.134,106.865 64.317,106.865L85.683,106.865M83.546,113.275C83.546,115.636 81.634,117.548 79.273,117.548L70.727,117.548C68.366,117.548 66.454,115.636 66.454,113.275L83.546,113.275M75,44.293C60.525,44.293 48.75,56.068 48.75,70.543C48.75,77.811 51.125,81.984 53.214,85.671C54.988,88.79 56.524,91.494 57.072,96.521C57.125,97.637 57.444,98.686 57.964,99.607C57.535,100.513 57.297,101.524 57.297,102.592C57.297,103.746 57.573,104.834 58.069,105.797C57.573,106.76 57.297,107.848 57.297,109.002C57.297,112.011 59.2,114.582 61.866,115.579C62.886,119.518 66.473,122.432 70.727,122.432L79.273,122.432C83.527,122.432 87.114,119.518 88.134,115.579C90.8,114.582 92.703,112.011 92.703,109.002C92.703,107.848 92.422,106.76 91.926,105.797C92.422,104.834 92.703,103.746 92.703,102.592C92.703,101.524 92.465,100.513 92.036,99.611C92.556,98.686 92.87,97.632 92.923,96.516C93.476,91.494 95.007,88.795 96.781,85.671C98.875,81.989 101.25,77.811 101.25,70.543C101.25,56.068 89.475,44.293 75,44.293Z" style="fill:white;fill-rule:nonzero;"/>
        </g>
    </g>
</svg>
