<?xml version="1.0" encoding="UTF-8" standalone="no"?>
<!DOCTYPE svg PUBLIC "-//W3C//DTD SVG 1.1//EN" "http://www.w3.org/Graphics/SVG/1.1/DTD/svg11.dtd">
<svg width="100%" height="100%" viewBox="0 0 150 150" version="1.1" xmlns="http://www.w3.org/2000/svg" xmlns:xlink="http://www.w3.org/1999/xlink" xml:space="preserve" xmlns:serif="http://www.serif.com/" style="fill-rule:evenodd;clip-rule:evenodd;stroke-linecap:round;stroke-linejoin:round;stroke-miterlimit:1.5;">
    <g transform="matrix(1.12726,0,0,1.12726,-9.54451,-19.089)">
        <g>
            <path d="M141.533,39.555C141.533,27.07 131.397,16.934 118.912,16.934L31.088,16.934C18.603,16.934 8.467,27.07 8.467,39.555L8.467,127.379C8.467,139.864 18.603,150 31.088,150L118.912,150C131.397,150 141.533,139.864 141.533,127.379L141.533,39.555Z" style="fill:none;"/>
            <ellipse cx="73.467" cy="81.746" rx="58.346" ry="56.317" style="fill:white;stroke:black;stroke-width:0.07px;"/>
            <path d="M75,20.106C38.255,20.106 8.467,48.474 8.467,83.467C8.467,118.46 38.255,146.827 75,146.827C111.745,146.827 141.533,118.46 141.533,83.467C141.533,48.474 111.745,20.106 75,20.106ZM22.763,84.127L74.306,133.213C46.003,132.862 23.132,111.081 22.763,84.127ZM86.693,131.969L24.069,72.331C29.38,50.214 50.166,33.713 75,33.713C92.36,33.713 107.739,41.778 117.24,54.186L110.006,60.264C102.299,49.739 89.495,42.851 75,42.851C56.545,42.851 40.829,54.015 34.888,69.637L89.522,121.666C102.79,117.09 112.994,106.425 116.412,93.215L93.766,93.215L93.766,83.467L127.246,83.467C127.246,107.117 109.918,126.912 86.693,131.969Z" style="fill:rgb(116,76,158);fill-rule:nonzero;"/>
        </g>
    </g>
</svg>
