<?xml version="1.0" encoding="UTF-8" standalone="no"?>
<!DOCTYPE svg PUBLIC "-//W3C//DTD SVG 1.1//EN" "http://www.w3.org/Graphics/SVG/1.1/DTD/svg11.dtd">
<svg width="100%" height="100%" viewBox="0 0 150 150" version="1.1" xmlns="http://www.w3.org/2000/svg" xmlns:xlink="http://www.w3.org/1999/xlink" xml:space="preserve" xmlns:serif="http://www.serif.com/" style="fill-rule:evenodd;clip-rule:evenodd;stroke-linejoin:round;stroke-miterlimit:2;">
    <g transform="matrix(1.12726,0,0,1.12726,-9.54479,-19.0887)">
        <g>
            <path d="M139.023,77.541L80.923,19.445C77.579,16.099 72.154,16.099 68.806,19.445L56.742,31.511L72.044,46.815C75.602,45.613 79.68,46.419 82.514,49.253C85.364,52.106 86.164,56.219 84.934,59.789L99.683,74.538C103.251,73.309 107.368,74.103 110.217,76.957C114.201,80.94 114.201,87.393 110.217,91.376C106.232,95.362 99.781,95.362 95.795,91.376C92.799,88.379 92.057,83.978 93.575,80.288L79.819,66.531L79.818,102.73C80.79,103.21 81.705,103.852 82.514,104.658C86.497,108.64 86.497,115.092 82.514,119.081C78.531,123.062 72.075,123.062 68.095,119.081C64.112,115.092 64.112,108.64 68.095,104.658C69.08,103.674 70.218,102.931 71.434,102.433L71.434,65.899C70.218,65.403 69.082,64.664 68.095,63.674C65.079,60.659 64.351,56.231 65.899,52.526L50.813,37.437L10.976,77.273C7.631,80.622 7.631,86.049 10.976,89.395L69.076,147.491C72.421,150.836 77.847,150.836 81.196,147.491L139.023,89.664C142.37,86.316 142.37,80.888 139.023,77.541Z" style="fill:rgb(240,81,51);fill-rule:nonzero;"/>
        </g>
    </g>
</svg>
