<?xml version="1.0" encoding="UTF-8" standalone="no"?>
<!DOCTYPE svg PUBLIC "-//W3C//DTD SVG 1.1//EN" "http://www.w3.org/Graphics/SVG/1.1/DTD/svg11.dtd">
<svg width="100%" height="100%" viewBox="0 0 150 150" version="1.1" xmlns="http://www.w3.org/2000/svg" xmlns:xlink="http://www.w3.org/1999/xlink" xml:space="preserve" xmlns:serif="http://www.serif.com/" style="fill-rule:evenodd;clip-rule:evenodd;stroke-linejoin:round;stroke-miterlimit:2;">
    <g transform="matrix(1.12542,0,0,1.12542,-9.40623,-18.8125)">
        <g>
            <path d="M8.358,16.716L141.642,16.716L129.222,136.513L74.474,150L20.137,136.288L8.358,16.716Z" style="fill:rgb(227,79,38);"/>
            <path d="M74.512,26.844L129.525,26.62L119.538,129.536L74.512,140.097L74.512,26.844Z" style="fill:rgb(239,101,42);"/>
            <path d="M117.122,41.787L115.842,55.719L52.082,55.944L52.595,70.55L113.793,71.449L109.696,116.39L74.912,124.929L40.048,116.615L38.511,93.021L55.155,93.47L56.435,105.155L74.912,109.2L93.821,104.93L95.613,86.504L36.975,85.83L32.878,41.787L117.122,41.787Z" style="fill:white;"/>
        </g>
    </g>
</svg>
