<?xml version="1.0" encoding="UTF-8" standalone="no"?>
<!DOCTYPE svg PUBLIC "-//W3C//DTD SVG 1.1//EN" "http://www.w3.org/Graphics/SVG/1.1/DTD/svg11.dtd">
<svg width="100%" height="100%" viewBox="0 0 150 150" version="1.1" xmlns="http://www.w3.org/2000/svg" xmlns:xlink="http://www.w3.org/1999/xlink" xml:space="preserve" xmlns:serif="http://www.serif.com/" style="fill-rule:evenodd;clip-rule:evenodd;stroke-linejoin:round;stroke-miterlimit:2;">
    <g transform="matrix(1.12549,0,0,1.12549,-9.41137,-18.8239)">
        <g>
            <rect x="8.362" y="16.725" width="133.275" height="133.275" style="fill:rgb(247,223,30);"/>
            <path d="M68.527,78.886L79.676,78.886L79.676,116.958C79.676,121.936 79.273,125.765 78.467,128.446C77.383,131.947 75.418,134.757 72.571,136.877C69.724,138.997 65.97,140.056 61.309,140.056C55.841,140.056 51.634,138.395 48.686,135.072C45.738,131.749 44.251,126.873 44.226,120.446L54.771,119.133C54.897,122.579 55.363,125.013 56.169,126.436C57.378,128.596 59.218,129.677 61.687,129.677C64.181,129.677 65.945,128.904 66.978,127.359C68.011,125.813 68.527,122.606 68.527,117.738L68.527,78.886Z" style="fill-rule:nonzero;"/>
            <path d="M88.747,119.461L99.631,118.312C100.286,122.278 101.615,125.191 103.618,127.051C105.621,128.911 108.323,129.841 111.725,129.841C115.328,129.841 118.043,129.013 119.869,127.359C121.696,125.704 122.609,123.769 122.609,121.553C122.609,120.131 122.225,118.921 121.457,117.923C120.688,116.924 119.347,116.056 117.432,115.317C116.121,114.825 113.136,113.95 108.475,112.692C102.478,111.078 98.271,109.095 95.852,106.743C92.45,103.433 90.75,99.399 90.75,94.64C90.75,91.577 91.55,88.712 93.15,86.045C94.749,83.378 97.055,81.348 100.066,79.953C103.077,78.558 106.711,77.86 110.969,77.86C117.923,77.86 123.157,79.515 126.672,82.824C130.187,86.134 132.032,90.551 132.209,96.076L121.022,96.609C120.543,93.519 119.517,91.296 117.942,89.943C116.367,88.589 114.005,87.912 110.856,87.912C107.605,87.912 105.061,88.637 103.221,90.086C102.037,91.016 101.445,92.261 101.445,93.82C101.445,95.242 101.999,96.459 103.108,97.471C104.519,98.756 107.946,100.097 113.388,101.492C118.83,102.886 122.855,104.329 125.463,105.82C128.07,107.31 130.111,109.348 131.585,111.933C133.059,114.517 133.796,117.711 133.796,121.512C133.796,124.959 132.914,128.186 131.151,131.195C129.387,134.203 126.893,136.439 123.668,137.902C120.443,139.366 116.424,140.097 111.612,140.097C104.607,140.097 99.228,138.34 95.474,134.825C91.72,131.311 89.477,126.189 88.747,119.461Z" style="fill-rule:nonzero;"/>
        </g>
    </g>
</svg>
