<?xml version="1.0" encoding="UTF-8" standalone="no"?>
<!DOCTYPE svg PUBLIC "-//W3C//DTD SVG 1.1//EN" "http://www.w3.org/Graphics/SVG/1.1/DTD/svg11.dtd">
<svg width="100%" height="100%" viewBox="0 0 150 150" version="1.1" xmlns="http://www.w3.org/2000/svg" xmlns:xlink="http://www.w3.org/1999/xlink" xml:space="preserve" xmlns:serif="http://www.serif.com/" style="fill-rule:evenodd;clip-rule:evenodd;stroke-linejoin:round;stroke-miterlimit:2;">
    <g transform="matrix(1.12726,0,0,1.12726,-9.54451,-19.089)">
        <g>
            <path d="M141.533,39.555C141.533,27.07 131.397,16.934 118.912,16.934L31.088,16.934C18.603,16.934 8.467,27.07 8.467,39.555L8.467,127.379C8.467,139.864 18.603,150 31.088,150L118.912,150C131.397,150 141.533,139.864 141.533,127.379L141.533,39.555Z" style="fill:white;"/>
            <path d="M141.533,83.48C141.533,74.665 130.494,66.312 113.569,61.131C117.475,43.881 115.739,30.156 108.09,25.762C106.327,24.732 104.266,24.244 102.015,24.244L102.015,30.292C103.262,30.292 104.266,30.536 105.107,30.997C108.795,33.113 110.396,41.168 109.148,51.529C108.85,54.079 108.361,56.764 107.765,59.504C102.449,58.202 96.644,57.198 90.542,56.547C86.88,51.529 83.083,46.973 79.258,42.986C88.1,34.767 96.4,30.265 102.042,30.265L102.042,24.216C94.583,24.216 84.819,29.533 74.946,38.754C65.073,29.587 55.309,24.325 47.85,24.325L47.85,30.373C53.464,30.373 61.791,34.849 70.633,43.013C66.836,47 63.039,51.529 59.431,56.547C53.301,57.198 47.497,58.202 42.181,59.531C41.557,56.818 41.096,54.187 40.771,51.665C39.496,41.304 41.069,33.248 44.731,31.106C45.544,30.617 46.602,30.4 47.85,30.4L47.85,24.352C45.571,24.352 43.51,24.84 41.72,25.871C34.098,30.265 32.39,43.962 36.322,61.158C19.452,66.366 8.467,74.693 8.467,83.48C8.467,92.296 19.506,100.649 36.431,105.83C32.525,123.08 34.261,136.805 41.91,141.199C43.673,142.229 45.734,142.717 48.012,142.717C55.471,142.717 65.236,137.401 75.108,128.179C84.981,137.347 94.746,142.609 102.205,142.609C104.483,142.609 106.544,142.121 108.334,141.09C115.956,136.696 117.665,122.999 113.732,105.803C130.548,100.622 141.533,92.268 141.533,83.48ZM106.219,65.389C105.215,68.888 103.968,72.496 102.557,76.103C101.445,73.933 100.279,71.763 99.004,69.593C97.756,67.424 96.427,65.308 95.098,63.247C98.95,63.816 102.666,64.521 106.219,65.389ZM93.796,94.275C91.681,97.937 89.511,101.409 87.26,104.637C83.218,104.989 79.123,105.179 75,105.179C70.904,105.179 66.809,104.989 62.795,104.664C60.543,101.436 58.346,97.991 56.231,94.357C54.169,90.804 52.298,87.196 50.589,83.562C52.271,79.927 54.169,76.293 56.204,72.74C58.319,69.078 60.489,65.606 62.74,62.379C66.782,62.026 70.877,61.836 75,61.836C79.096,61.836 83.191,62.026 87.205,62.352C89.457,65.579 91.654,69.024 93.769,72.658C95.831,76.211 97.702,79.819 99.411,83.453C97.702,87.088 95.831,90.722 93.796,94.275ZM102.557,90.749C104.022,94.384 105.269,98.018 106.3,101.545C102.747,102.412 99.004,103.145 95.125,103.714C96.454,101.626 97.783,99.483 99.031,97.286C100.279,95.116 101.445,92.919 102.557,90.749ZM75.054,119.69C72.532,117.086 70.009,114.184 67.514,111.01C69.955,111.119 72.45,111.2 74.973,111.2C77.522,111.2 80.045,111.146 82.513,111.01C80.072,114.184 77.55,117.086 75.054,119.69ZM54.875,103.714C51.023,103.145 47.307,102.44 43.754,101.572C44.758,98.073 46.005,94.465 47.416,90.858C48.528,93.028 49.694,95.198 50.969,97.368C52.244,99.537 53.546,101.653 54.875,103.714ZM74.919,47.271C77.441,49.875 79.964,52.777 82.459,55.95C80.018,55.842 77.522,55.761 75,55.761C72.45,55.761 69.928,55.815 67.46,55.95C69.901,52.777 72.423,49.875 74.919,47.271ZM54.848,63.247C53.518,65.335 52.189,67.478 50.942,69.675C49.694,71.845 48.528,74.015 47.416,76.184C45.951,72.55 44.703,68.915 43.673,65.389C47.226,64.549 50.969,63.816 54.848,63.247ZM30.301,97.205C20.699,93.109 14.488,87.739 14.488,83.48C14.488,79.222 20.699,73.825 30.301,69.756C32.634,68.753 35.183,67.858 37.814,67.017C39.36,72.333 41.394,77.866 43.917,83.535C41.422,89.176 39.414,94.682 37.896,99.971C35.21,99.131 32.661,98.208 30.301,97.205ZM44.893,135.964C41.205,133.848 39.604,125.793 40.852,115.432C41.15,112.882 41.639,110.197 42.235,107.457C47.551,108.759 53.356,109.763 59.458,110.414C63.12,115.432 66.917,119.988 70.742,123.975C61.9,132.194 53.6,136.696 47.958,136.696C46.738,136.669 45.707,136.425 44.893,135.964ZM109.229,115.296C110.504,125.657 108.931,133.713 105.269,135.855C104.456,136.343 103.398,136.56 102.15,136.56C96.536,136.56 88.209,132.085 79.367,123.921C83.164,119.934 86.961,115.404 90.569,110.387C96.699,109.736 102.503,108.732 107.819,107.403C108.443,110.143 108.931,112.773 109.229,115.296ZM119.672,97.205C117.339,98.208 114.79,99.103 112.159,99.944C110.613,94.628 108.578,89.095 106.056,83.426C108.551,77.785 110.558,72.279 112.077,66.99C114.763,67.83 117.312,68.753 119.699,69.756C129.301,73.852 135.512,79.222 135.512,83.48C135.485,87.739 129.273,93.136 119.672,97.205Z" style="fill:rgb(97,218,251);fill-rule:nonzero;"/>
            <circle cx="75" cy="83.467" r="7.361" style="fill:rgb(97,218,251);"/>
        </g>
    </g>
</svg>
