<?xml version="1.0" encoding="UTF-8" standalone="no"?>
<!DOCTYPE svg PUBLIC "-//W3C//DTD SVG 1.1//EN" "http://www.w3.org/Graphics/SVG/1.1/DTD/svg11.dtd">
<svg width="100%" height="100%" viewBox="0 0 150 150" version="1.1" xmlns="http://www.w3.org/2000/svg" xmlns:xlink="http://www.w3.org/1999/xlink" xml:space="preserve" xmlns:serif="http://www.serif.com/" style="fill-rule:evenodd;clip-rule:evenodd;stroke-linejoin:round;stroke-miterlimit:2;">
    <g transform="matrix(1.12726,0,0,1.12726,-9.54451,-19.089)">
        <path d="M141.533,39.555C141.533,27.07 131.397,16.934 118.912,16.934L31.088,16.934C18.603,16.934 8.467,27.07 8.467,39.555L8.467,127.379C8.467,139.864 18.603,150 31.088,150L118.912,150C131.397,150 141.533,139.864 141.533,127.379L141.533,39.555Z" style="fill:rgb(76,82,116);"/>
        <ellipse cx="75" cy="83.467" rx="47.841" ry="48.004" style="fill:white;"/>
        <ellipse cx="75" cy="83.467" rx="44.993" ry="45.146" style="fill:rgb(76,82,116);"/>
        <path d="M65.718,77.352L58.824,77.352L58.824,75.056C58.824,73.984 58.736,73.301 58.56,73.008C58.384,72.714 58.09,72.568 57.678,72.568C57.232,72.568 56.894,72.766 56.665,73.161C56.436,73.557 56.321,74.157 56.321,74.962C56.321,75.996 56.45,76.775 56.707,77.298C56.954,77.822 57.653,78.453 58.805,79.193C62.109,81.321 64.19,83.068 65.048,84.433C65.906,85.799 66.335,88 66.335,91.036C66.335,93.243 66.097,94.87 65.621,95.916C65.145,96.963 64.225,97.84 62.862,98.548C61.498,99.256 59.912,99.61 58.102,99.61C56.115,99.61 54.42,99.202 53.015,98.385C51.611,97.569 50.691,96.529 50.256,95.266C49.821,94.003 49.604,92.21 49.604,89.888L49.604,87.859L56.497,87.859L56.497,91.629C56.497,92.79 56.594,93.537 56.788,93.869C56.982,94.2 57.326,94.366 57.82,94.366C58.313,94.366 58.68,94.156 58.921,93.735C59.162,93.314 59.283,92.688 59.283,91.859C59.283,90.035 59.054,88.842 58.595,88.28C58.125,87.719 56.967,86.781 55.122,85.467C53.277,84.14 52.055,83.177 51.455,82.577C50.856,81.977 50.359,81.148 49.965,80.089C49.572,79.03 49.375,77.678 49.375,76.032C49.375,73.659 49.654,71.923 50.212,70.826C50.77,69.729 51.673,68.871 52.918,68.252C54.164,67.633 55.669,67.324 57.432,67.324C59.359,67.324 61.002,67.662 62.359,68.338C63.717,69.014 64.616,69.866 65.057,70.893C65.497,71.92 65.718,73.665 65.718,76.127L65.718,77.352Z" style="fill:white;fill-rule:nonzero;"/>
        <path d="M68.662,67.974L81.038,67.974L81.038,74.175L76.084,74.175L76.084,80.051L80.721,80.051L80.721,85.945L76.084,85.945L76.084,92.759L81.532,92.759L81.532,98.959L68.662,98.959L68.662,67.974Z" style="fill:white;fill-rule:nonzero;"/>
        <path d="M100.625,86.118C100.625,89.231 100.558,91.435 100.423,92.73C100.287,94.025 99.864,95.208 99.153,96.28C98.442,97.352 97.481,98.175 96.271,98.749C95.06,99.323 93.65,99.61 92.039,99.61C90.511,99.61 89.139,99.339 87.923,98.797C86.706,98.254 85.728,97.441 84.987,96.357C84.247,95.272 83.806,94.092 83.665,92.816C83.524,91.54 83.454,89.307 83.454,86.118L83.454,80.816C83.454,77.703 83.521,75.499 83.656,74.204C83.792,72.909 84.215,71.726 84.926,70.654C85.637,69.582 86.598,68.759 87.808,68.185C89.019,67.611 90.429,67.324 92.039,67.324C93.567,67.324 94.94,67.595 96.156,68.137C97.373,68.679 98.351,69.493 99.091,70.577C99.832,71.662 100.273,72.842 100.414,74.118C100.555,75.394 100.625,77.627 100.625,80.816L100.625,86.118ZM93.203,75.936C93.203,74.494 93.13,73.572 92.983,73.171C92.836,72.769 92.533,72.568 92.075,72.568C91.687,72.568 91.39,72.73 91.184,73.056C90.979,73.381 90.876,74.341 90.876,75.936L90.876,90.405C90.876,92.204 90.943,93.314 91.079,93.735C91.214,94.156 91.528,94.366 92.022,94.366C92.527,94.366 92.85,94.124 92.991,93.639C93.132,93.154 93.203,91.999 93.203,90.175L93.203,75.936Z" style="fill:white;fill-rule:nonzero;"/>
    </g>
</svg>
