<?xml version="1.0" encoding="UTF-8" standalone="no"?>
<!DOCTYPE svg PUBLIC "-//W3C//DTD SVG 1.1//EN" "http://www.w3.org/Graphics/SVG/1.1/DTD/svg11.dtd">
<svg width="100%" height="100%" viewBox="0 0 150 150" version="1.1" xmlns="http://www.w3.org/2000/svg" xmlns:xlink="http://www.w3.org/1999/xlink" xml:space="preserve" xmlns:serif="http://www.serif.com/" style="fill-rule:evenodd;clip-rule:evenodd;stroke-linejoin:round;stroke-miterlimit:2;">
    <g transform="matrix(1.12726,0,0,1.12726,-9.54451,-19.089)">
        <g>
            <path d="M141.533,39.555C141.533,27.07 131.397,16.934 118.912,16.934L31.088,16.934C18.603,16.934 8.467,27.07 8.467,39.555L8.467,127.379C8.467,139.864 18.603,150 31.088,150L118.912,150C131.397,150 141.533,139.864 141.533,127.379L141.533,39.555Z" style="fill:rgb(0,122,204);"/>
            <path d="M35.727,62.58L35.56,103.49L43.408,108.667L65.282,92.971L98.01,124.864L116.879,117.016L116.879,51.893L98.511,43.878L65.616,76.272L43.909,60.075L35.727,62.58ZM76.219,84.613L97.844,100.485L98.01,68.758L76.219,84.613ZM44.076,73.935L43.909,94.974L56.933,84.613L44.076,73.935Z" style="fill:white;"/>
        </g>
    </g>
</svg>
