<?xml version="1.0" encoding="UTF-8" standalone="no"?>
<!DOCTYPE svg PUBLIC "-//W3C//DTD SVG 1.1//EN" "http://www.w3.org/Graphics/SVG/1.1/DTD/svg11.dtd">
<svg width="100%" height="100%" viewBox="0 0 150 150" version="1.1" xmlns="http://www.w3.org/2000/svg" xmlns:xlink="http://www.w3.org/1999/xlink" xml:space="preserve" xmlns:serif="http://www.serif.com/" style="fill-rule:evenodd;clip-rule:evenodd;">
    <g transform="matrix(1.12726,0,0,1.12726,-9.54451,-19.089)">
        <g>
            <path d="M141.533,36.894C141.533,25.878 132.589,16.934 121.573,16.934L28.427,16.934C17.411,16.934 8.467,25.878 8.467,36.894L8.467,130.04C8.467,141.056 17.411,150 28.427,150L121.573,150C132.589,150 141.533,141.056 141.533,130.04L141.533,36.894Z" style="fill:rgb(33,117,155);"/>
            <circle cx="75" cy="83.467" r="49.38" style="fill:none;stroke:white;stroke-width:5.2px;"/>
            <path d="M61.485,130.248L76.04,87.625L91.113,128.949L98.65,124.79L113.205,82.687C115.803,75.93 116.583,70.472 116.583,65.794C116.843,57.218 113.205,49.681 106.967,48.901C101.249,48.381 98.131,53.839 98.391,57.218C98.91,65.014 106.707,69.433 106.707,80.088C106.707,87.885 101.769,100.1 98.391,111.795L81.497,61.376C84.356,61.116 86.955,61.116 86.955,61.116C89.554,60.856 89.294,56.958 86.695,57.218C78.119,57.997 70.322,57.737 61.745,57.218C59.146,56.958 58.887,60.856 61.485,61.116C61.485,61.116 63.825,61.116 66.423,61.376L73.701,81.388L63.305,112.315L46.412,61.376C49.27,61.116 51.609,61.116 51.609,61.116C54.208,60.856 53.949,56.958 51.35,57.218C43.553,57.737 36.016,58.257 34.197,56.958L31.857,63.455L54.728,126.609L61.485,130.248Z" style="fill:white;fill-rule:nonzero;"/>
        </g>
    </g>
</svg>
