<?xml version="1.0" encoding="UTF-8" standalone="no"?><!DOCTYPE svg PUBLIC "-//W3C//DTD SVG 1.1//EN" "http://www.w3.org/Graphics/SVG/1.1/DTD/svg11.dtd"><svg width="100%" height="100%" viewBox="0 0 750 750" version="1.1" xmlns="http://www.w3.org/2000/svg" xmlns:xlink="http://www.w3.org/1999/xlink" xml:space="preserve" xmlns:serif="http://www.serif.com/" style="fill-rule:evenodd;clip-rule:evenodd;stroke-linejoin:round;stroke-miterlimit:2;"><g id="CorelEMF"><path d="M719.297,216.094l-41.367,41.484l-33.164,-33.164l41.484,-41.367l33.047,33.047Z" style="fill:#bdfdff;fill-rule:nonzero;"/><path d="M677.93,257.578l-127.149,127.149l-46.875,46.875l-116.015,116.015l-33.164,-33.164l149.179,-149.18l46.875,-46.757l93.985,-94.102l33.164,33.164Z" style="fill:#ff9811;fill-rule:nonzero;"/><path d="M550.781,384.727l0,306.679c-0.038,12.843 -10.594,23.399 -23.437,23.438l-468.75,0c-12.843,-0.039 -23.399,-10.595 -23.438,-23.438l0,-562.5c0.039,-12.843 10.595,-23.399 23.438,-23.437l117.187,0l0,46.875l-93.75,0l0,515.625l421.875,0l0,-236.367l46.875,-46.875Z" style="fill:#ff7956;fill-rule:nonzero;"/><path d="M550.781,128.906l0,189.61l-46.875,46.757l0,-212.929l-93.75,0l0,-46.875l117.188,0c12.843,0.038 23.399,10.594 23.437,23.437Z" style="fill:#ff7956;fill-rule:nonzero;"/><path d="M354.727,514.453l-49.688,82.852l82.852,-49.688l116.015,-116.015l0,236.367l-421.875,0l0,-515.625l93.75,0l0,23.437l234.375,0l0,-23.437l93.75,0l0,212.929l-149.179,149.18Z" style="fill:#fee9ab;fill-rule:nonzero;"/><path d="M410.156,152.344l0,23.437l-234.375,0l0,-23.437l0,-46.875l0,-23.438l234.375,0l0,70.313Z" style="fill:#9cdd05;fill-rule:nonzero;"/><path d="M387.891,547.617l-82.852,49.688l49.688,-82.852l33.164,33.164Z" style="fill:#2488ff;fill-rule:nonzero;"/><rect x="234.375" y="35.156" width="117.188" height="46.875" style="fill:#ff7956;fill-rule:nonzero;"/><path d="M199.219,559.57l0,61.524l-70.313,0l0,-70.313l70.313,0l0,8.789Z" style="fill:#ff3051;fill-rule:nonzero;"/><path d="M199.219,418.945l0,61.524l-70.313,0l0,-70.313l70.313,0l0,8.789Z" style="fill:#b2fa09;fill-rule:nonzero;"/><path d="M199.219,278.32l0,61.524l-70.313,0l0,-70.313l70.313,0l0,8.789Z" style="fill:#46f8ff;fill-rule:nonzero;"/><path d="M128.906,257.813c-6.428,0 -11.719,5.29 -11.719,11.718l0,70.313c0,6.428 5.291,11.719 11.719,11.719l70.313,0c6.428,0 11.719,-5.291 11.719,-11.719l0,-55.664l53.906,-40.43l-14.063,-18.75l-45.937,34.453c-1.7,-1.028 -3.639,-1.594 -5.625,-1.64l-70.313,0Zm42.188,56.25l16.406,-12.305l0,26.367l-46.875,0l0,-46.875l35.156,0l-18.75,14.063l14.063,18.75Z" style="fill-rule:nonzero;"/><path d="M204.844,400.078c-1.7,-1.028 -3.639,-1.594 -5.625,-1.641l-70.313,0c-6.428,0 -11.719,5.291 -11.719,11.719l0,70.313c0,6.428 5.291,11.719 11.719,11.719l70.313,0c6.428,0 11.719,-5.291 11.719,-11.719l0,-55.664l53.906,-40.43l-14.063,-18.75l-45.937,34.453Zm-17.344,68.672l-46.875,0l0,-46.875l35.156,0l-18.75,14.063l14.063,18.75l16.406,-12.305l0,26.367Z" style="fill-rule:nonzero;"/><path d="M250.781,506.25l-45.937,34.453c-1.7,-1.028 -3.639,-1.594 -5.625,-1.64l-70.313,0c-6.428,0 -11.719,5.29 -11.719,11.718l0,70.313c0,6.428 5.291,11.719 11.719,11.719l70.313,0c6.428,0 11.718,-5.291 11.718,-11.719l0,-55.664l53.907,-40.43l-14.063,-18.75Zm-63.281,103.125l-46.875,0l0,-46.875l35.156,0l-18.75,14.063l14.063,18.75l16.406,-12.305l0,26.367Z" style="fill-rule:nonzero;"/><rect x="304.688" y="234.375" width="164.063" height="23.438" style="fill-rule:nonzero;"/><rect x="304.688" y="304.688" width="164.063" height="23.438" style="fill-rule:nonzero;"/><rect x="304.688" y="375" width="117.188" height="23.438" style="fill-rule:nonzero;"/><rect x="304.688" y="445.313" width="46.875" height="23.438" style="fill-rule:nonzero;"/><path d="M727.641,207.855l-33.153,-33.152c-4.545,-4.544 -12.025,-4.544 -16.57,0l-115.418,115.418l0,-161.215c0,-19.286 -15.87,-35.156 -35.156,-35.156l-105.469,0l0,-11.719c0,-6.428 -5.29,-11.719 -11.719,-11.719l-46.875,0l0,-35.156c0,-6.428 -5.29,-11.719 -11.718,-11.719l-117.188,0c-6.429,0 -11.719,5.291 -11.719,11.719l0,35.156l-46.875,0c-6.428,0 -11.718,5.291 -11.718,11.719l0,11.719l-105.469,0c-19.286,0 -35.156,15.87 -35.156,35.156l0,562.5c0,19.286 15.87,35.156 35.156,35.156l468.75,0c19.286,0 35.156,-15.87 35.156,-35.156l0,-301.84l165.141,-165.14c4.544,-4.546 4.544,-12.025 0,-16.571Zm-339.75,323.168l-16.571,-16.57l273.457,-273.457l16.571,16.57l-273.457,273.457Zm-30.821,2.344l11.918,11.918l-29.8,17.883l17.882,-29.801Zm170.274,-416.179c6.428,0 11.719,5.29 11.719,11.718l0,184.653l-23.438,23.437l0,-184.652c0,-6.429 -5.29,-11.719 -11.719,-11.719l-82.031,0l0,-23.437l105.469,0Zm-281.25,-70.313l93.75,0l0,23.438l-93.75,0l0,-23.438Zm-58.594,46.875l210.938,0l-0.001,70.313l-210.937,0l0,-70.313Zm222.656,93.75c6.429,0 11.719,-5.29 11.719,-11.719l0,-11.718l70.312,0l0,196.371l-145.722,145.722c-0.676,0.679 -1.267,1.439 -1.758,2.262l-49.723,82.863c-1.109,1.823 -1.696,3.916 -1.696,6.05c0,6.294 5.107,11.505 11.399,11.634l0,0.41l164.063,0l0,-23.438l-121.98,0l47.156,-28.3c0.823,-0.492 1.582,-1.082 2.261,-1.758l96,-96l0,196.371l-398.437,0l0,-492.187l70.312,0l0,11.718c0,6.429 5.291,11.719 11.719,11.719l234.375,0Zm128.906,503.906c0,6.429 -5.29,11.719 -11.718,11.719l-468.75,0c-6.429,0 -11.719,-5.29 -11.719,-11.719l0,-562.5c0,-6.428 5.29,-11.718 11.719,-11.718l105.468,0l0,23.437l-82.031,0c-6.428,0 -11.719,5.29 -11.719,11.719l0,515.625c0,6.428 5.291,11.719 11.719,11.719l421.875,0c6.429,0 11.719,-5.291 11.719,-11.719l0,-231.528l23.437,-23.437l0,278.402Zm138.856,-450.41l-16.57,-16.57l24.855,-24.867l16.582,16.582l-24.867,24.855Z" style="fill-rule:nonzero;"/></g></svg>