<svg id="Capa_1" enable-background="new 0 0 512 512" height="512" viewBox="0 0 512 512" width="512" xmlns="http://www.w3.org/2000/svg"><path d="m486 102h-60c-8.284 0-15 6.716-15 15l.024 280.001c.001 8.284 6.716 14.999 15 14.999h59.953c8.284 0 14.999-6.715 15-14.999l.023-280.001c0-8.284-6.716-15-15-15z" fill="#ffe664"/><path d="m486 102h-30v310h29.976c8.284 0 14.999-6.715 15-14.999l.024-280.001c0-8.284-6.716-15-15-15z" fill="#facd28"/><path d="m429.84 462 11.673 38.91c1.726 5.753 6.564 10.191 12.521 10.963 7.409.96 14.244-3.596 16.334-10.563l11.792-39.31-26.16-20z" fill="#646464"/><path d="m470.367 501.31 11.793-39.31-26.16-20v69.985c6.623-.001 12.464-4.331 14.367-10.675z" fill="#464646"/><path d="m336 512h-280c-24.813 0-45-20.187-45-45v-380c0-24.813 20.187-45 45-45h280c24.813 0 45 20.187 45 45v380c0 24.813-20.187 45-45 45z" fill="#be7823"/><path d="m336 42h-140v470h140c24.813 0 45-20.187 45-45v-380c0-24.813-20.187-45-45-45z" fill="#96641e"/><path d="m56 72c-8.271 0-15 6.729-15 15v380c0 8.271 6.729 15 15 15h280c8.271 0 15-6.729 15-15v-380c0-8.271-6.729-15-15-15z" fill="#646464"/><path d="m336 72h-140v410h140c8.271 0 15-6.729 15-15v-380c0-8.271-6.729-15-15-15z" fill="#464646"/><path d="m276 112h-160c-5.199 0-10.027-2.692-12.76-7.114s-2.981-9.944-.657-14.594l18.417-36.833v-38.459c0-8.284 6.716-15 15-15h120c8.284 0 15 6.716 15 15v38.459l18.417 36.833c2.325 4.649 2.076 10.172-.657 14.594s-7.561 7.114-12.76 7.114z" fill="#ffe664"/><path d="m289.417 90.292-18.417-36.833v-38.459c0-8.284-6.716-15-15-15h-60v112h80c5.199 0 10.027-2.692 12.76-7.114s2.981-9.945.657-14.594z" fill="#facd28"/><path d="m297.213 188.213 10.607-10.607c5.858-5.857 5.858-15.355 0-21.213-5.857-5.858-15.354-5.858-21.213 0l-10.607 10.607-10.607-10.607c-5.857-5.858-15.355-5.858-21.213 0s-5.858 15.355 0 21.213l10.607 10.607-10.607 10.607c-5.858 5.857-5.858 15.355 0 21.213 2.929 2.929 6.767 4.394 10.606 4.394 3.838 0 7.678-1.465 10.606-4.394l10.608-10.607 10.607 10.607c2.929 2.929 6.768 4.394 10.606 4.394s7.678-1.464 10.606-4.394c5.858-5.858 5.858-15.355 0-21.213z" fill="#c8e9e9"/><path d="m146 444.426c-3.839 0-7.678-1.464-10.606-4.394l-42.426-42.426c-5.858-5.858-5.858-15.355 0-21.213 5.857-5.858 15.355-5.858 21.213 0l42.426 42.426c5.858 5.858 5.858 15.355 0 21.213-2.929 2.93-6.768 4.394-10.607 4.394z" fill="#e6fcfc"/><path d="m103.574 444.426c-3.839 0-7.678-1.464-10.606-4.394-5.858-5.858-5.858-15.355 0-21.213l42.426-42.426c5.857-5.858 15.355-5.858 21.213 0s5.858 15.355 0 21.213l-42.426 42.426c-2.93 2.93-6.768 4.394-10.607 4.394z" fill="#e6fcfc"/><path d="m266 452c-24.813 0-45-20.187-45-45s20.187-45 45-45 45 20.187 45 45-20.187 45-45 45zm0-60c-8.271 0-15 6.729-15 15s6.729 15 15 15 15-6.729 15-15-6.729-15-15-15z" fill="#c8e9e9"/><path d="m226.311 322.705-81.893-141.844 19.662 5.268c8.004 2.145 16.228-2.605 18.371-10.606 2.144-8.002-2.604-16.227-10.606-18.371l-54.638-14.64c-3.709-.995-7.797-.574-11.385 1.498-3.587 2.071-5.995 5.4-6.989 9.108l-14.641 54.641c-2.144 8.002 2.604 16.227 10.606 18.371 1.301.349 2.606.515 3.892.515 6.623 0 12.684-4.42 14.479-11.122l5.268-19.662 81.893 141.844c2.778 4.813 7.82 7.502 13.004 7.502 2.544 0 5.124-.648 7.486-2.012 7.175-4.142 9.633-13.316 5.491-20.49z" fill="#e6fcfc"/><path d="m500.367 401.31c.417-1.391.601-2.815.608-4.234 0-.042-.034-.076-.076-.076h-89.798c-.042 0-.076.034-.076.076.006 1.418.19 2.843.608 4.234l18.207 60.69h52.32z" fill="#ffd2aa"/><path d="m226.311 322.705-30.311-52.499v59.999l4.33 7.5c2.778 4.813 7.82 7.502 13.004 7.502 2.544 0 5.124-.648 7.486-2.012 7.175-4.142 9.633-13.316 5.491-20.49z" fill="#c8e9e9"/><path d="m482.16 462 18.207-60.69c.417-1.391.601-2.815.608-4.234 0-.042-.034-.076-.076-.076h-44.899v65z" fill="#fabe8f"/><path d="m466 42h-20c-19.299 0-35 15.701-35 35v40h90v-40c0-19.299-15.701-35-35-35z" fill="#e6fcfc"/><path d="m501 77c0-19.299-15.701-35-35-35h-10v75h45z" fill="#c8e9e9"/></svg>