<?xml version="1.0" encoding="UTF-8" standalone="no"?><!DOCTYPE svg PUBLIC "-//W3C//DTD SVG 1.1//EN" "http://www.w3.org/Graphics/SVG/1.1/DTD/svg11.dtd"><svg width="100%" height="100%" viewBox="0 0 1000 1000" version="1.1" xmlns="http://www.w3.org/2000/svg" xmlns:xlink="http://www.w3.org/1999/xlink" xml:space="preserve" xmlns:serif="http://www.serif.com/" style="fill-rule:evenodd;clip-rule:evenodd;stroke-linejoin:round;stroke-miterlimit:2;"><g><g><path d="M157.038,185.569l0,628.835c0,64.905 52.786,117.69 117.653,117.69l225.168,0l0,-66.245l-235.59,0c-27.607,0 -49.986,-22.379 -49.986,-49.985l0,-646.047c0,-27.606 22.379,-49.985 49.986,-49.985l79.748,0l0,-22.341c0,-6.292 5.108,-11.39 11.389,-11.39l144.453,0l0,-18.195l-225.168,0c-64.867,0 -117.653,52.78 -117.653,117.663Z" style="fill:#bdbcbc;fill-rule:nonzero;"/><path d="M640.458,86.101c6.282,0 11.39,5.098 11.39,11.39l0,22.341l20.314,0l107.149,114.609l0,581.423c0,20.714 -12.568,38.471 -30.525,46.055c-1.503,0.649 -3,1.216 -4.584,1.703c-4.703,1.459 -9.687,2.227 -14.876,2.227l-229.467,0l0,66.245l225.413,0c64.904,0 117.69,-52.785 117.69,-117.69l0,-628.835c0,-64.883 -52.786,-117.663 -117.69,-117.663l-225.413,0l0,18.195l140.599,0Z" style="fill:#999;fill-rule:nonzero;"/><path d="M360.234,105.269l-6.649,0c-4.584,0 -8.314,-3.73 -8.314,-8.335c0,-4.6 3.73,-8.336 8.314,-8.336l29.309,0c4.622,0 8.351,3.736 8.351,8.336c0,4.605 -3.729,8.335 -8.351,8.335l-6.649,0l0,14.563l123.452,0l0,-33.731l-144.291,0c-6.281,0 -11.389,5.098 -11.389,11.39l0,22.341l16.217,0l0,-14.563Z" style="fill:#808080;fill-rule:nonzero;"/><rect x="499.697" y="86.101" width="0.162" height="33.731" style="fill:#666;"/><path d="M619.62,119.832l0,-14.563l-6.692,0c-4.579,0 -8.309,-3.73 -8.309,-8.335c0,-4.6 3.73,-8.336 8.309,-8.336l29.314,0c4.622,0 8.352,3.736 8.352,8.336c0,4.605 -3.73,8.335 -8.352,8.335l-6.649,0l0,14.563l16.255,0l0,-22.341c0,-6.292 -5.108,-11.39 -11.39,-11.39l-140.599,0l0,33.731l119.761,0Z" style="fill:#666;fill-rule:nonzero;"/><path d="M251.176,814.847c-5.513,0 -9.973,-4.497 -9.973,-10.011c0,-5.514 4.46,-10.016 9.973,-10.016l248.683,0l0,-64.608l-248.683,0c-5.513,0 -9.973,-4.476 -9.973,-10c0,-5.519 4.46,-9.995 9.973,-9.995l248.683,0l0,-64.634l-248.683,0c-5.513,0 -9.973,-4.476 -9.973,-9.995c0,-5.519 4.46,-9.995 9.973,-9.995l248.683,0l0,-121.933l-248.683,0c-5.513,0 -9.973,-4.476 -9.973,-10.001c0,-5.513 4.46,-9.989 9.973,-9.989l248.683,0l0,-54.64l-248.683,0c-5.513,0 -9.973,-4.47 -9.973,-9.995c0,-5.519 4.46,-9.994 9.973,-9.994l248.683,0l0,-54.64l-248.683,0c-5.513,0 -9.973,-4.47 -9.973,-9.995c0,-5.519 4.46,-9.995 9.973,-9.995l248.683,0l0,-54.639l-248.683,0c-5.513,0 -9.973,-4.471 -9.973,-9.995c0,-5.519 4.46,-9.995 9.973,-9.995l248.683,0l0,-79.229l-0.162,0l-144.291,0c-6.281,0 -11.389,-5.098 -11.389,-11.39l0,-49.331l-79.748,0c-27.607,0 -49.986,22.379 -49.986,49.985l0,646.047c0,27.606 22.379,49.985 49.986,49.985l235.59,0l0,-51.002l-248.683,0Z" style="fill:#fff;fill-rule:nonzero;"/><path d="M722.147,234.441c-27.606,0 -49.985,-22.374 -49.985,-49.986l0,-64.623l0,64.623c0,27.612 22.379,49.986 49.985,49.986Z" style="fill:#fff;fill-rule:nonzero;"/><path d="M779.311,815.864c0,20.714 -12.568,38.471 -30.525,46.055c17.957,-7.584 30.525,-25.341 30.525,-46.055l0,-581.423l0,581.423Z" style="fill:#fff;fill-rule:nonzero;"/><path d="M355.406,180.553l144.291,0l0,-19.985l-22.341,0c-8.227,0 -15.038,-4.459 -17.552,-10.822l-74.316,0c-14.146,0 -25.254,-8.27 -25.254,-18.838l0,-11.076l-16.217,0l0,49.331c0,6.292 5.108,11.39 11.389,11.39Z" style="fill:#fff;fill-rule:nonzero;"/><path d="M385.488,133.751l89.317,0l0,10.119c0.362,0.265 1.216,0.703 2.551,0.703l22.341,0l0,-24.741l-123.452,0l0,11.076c0.368,0.611 3.649,2.843 9.243,2.843Z" style="fill:#fff;fill-rule:nonzero;"/><rect x="499.697" y="119.832" width="0.162" height="24.736" style="fill:#fff;"/><rect x="499.697" y="160.568" width="0.162" height="19.984" style="fill:#fff;"/><path d="M852.935,814.404c0,44.066 -22.298,82.948 -56.272,105.852c-3.406,2.319 -6.892,4.459 -10.541,6.411c-3.605,1.989 -7.335,3.768 -11.146,5.389c-3.811,1.627 -7.746,3.038 -11.719,4.298c-7.984,2.475 -16.336,4.173 -24.931,5.065c-4.297,0.454 -8.638,0.648 -13.054,0.648l-225.413,0l-225.168,0c-70.505,0 -127.669,-57.164 -127.669,-127.663l0,-628.835c0,-70.505 57.164,-127.663 127.669,-127.663l450.581,0c70.499,0 127.663,57.158 127.663,127.663l0,628.835Zm-127.663,-766.488l-450.581,0c-75.895,0 -137.642,61.748 -137.642,137.653l0,628.835c0,75.932 61.747,137.68 137.642,137.68l450.581,0c75.932,0 137.679,-61.748 137.679,-137.68l0,-628.835c0,-75.905 -61.747,-137.653 -137.679,-137.653Z" style="fill-rule:nonzero;"/><path d="M274.691,932.094c-64.867,0 -117.653,-52.785 -117.653,-117.69l0,-628.835c0,-64.883 52.786,-117.663 117.653,-117.663l225.168,0l0,-10l-225.168,0c-70.505,0 -127.669,57.158 -127.669,127.663l0,628.835c0,70.499 57.164,127.663 127.669,127.663l225.168,0l0,-9.973l-225.168,0Z" style="fill-rule:nonzero;"/><path d="M725.272,942.067c4.416,0 8.757,-0.194 13.054,-0.648c-4.297,0.454 -8.638,0.648 -13.054,0.648Z" style="fill-rule:nonzero;"/><path d="M774.976,932.056c-3.811,1.627 -7.746,3.038 -11.719,4.298c3.973,-1.26 7.908,-2.671 11.719,-4.298Z" style="fill-rule:nonzero;"/><path d="M796.663,920.256c-3.406,2.319 -6.892,4.459 -10.541,6.411c3.649,-1.952 7.135,-4.092 10.541,-6.411Z" style="fill-rule:nonzero;"/><path d="M725.272,57.906l-225.413,0l225.413,0c70.499,0 127.663,57.158 127.663,127.663l0,628.835c0,44.066 -22.298,82.948 -56.272,105.852c33.974,-22.904 56.272,-61.786 56.272,-105.852l0,-628.835c0,-70.505 -57.164,-127.663 -127.663,-127.663Z" style="fill-rule:nonzero;"/><path d="M852.935,814.404l0,-628.835c0,-70.505 -57.164,-127.663 -127.663,-127.663l-225.413,0l0,10l225.413,0c64.904,0 117.69,52.78 117.69,117.663l0,628.835c0,64.905 -52.786,117.69 -117.69,117.69l-225.413,0l0,9.973l225.413,0c4.416,0 8.757,-0.194 13.054,-0.648c8.595,-0.892 16.947,-2.59 24.931,-5.065c3.973,-1.26 7.908,-2.671 11.719,-4.298c3.811,-1.621 7.541,-3.4 11.146,-5.389c3.649,-1.952 7.135,-4.092 10.541,-6.411c33.974,-22.904 56.272,-61.786 56.272,-105.852Z" style="fill-rule:nonzero;"/><path d="M729.326,865.849c5.189,0 10.173,-0.768 14.876,-2.227c-4.703,1.459 -9.687,2.227 -14.876,2.227Z" style="fill:#f2f2f2;fill-rule:nonzero;"/><path d="M744.202,863.622c1.584,-0.487 3.081,-1.054 4.584,-1.703c17.957,-7.584 30.525,-25.341 30.525,-46.055l0,-581.423l-57.164,0c-27.606,0 -49.985,-22.374 -49.985,-49.986l0,-64.623l-20.314,0l0,49.331c0,6.292 -5.108,11.39 -11.39,11.39l-140.599,0l0,79.229l247.467,0c5.552,0 10.011,4.476 10.011,9.995c0,5.524 -4.459,9.995 -10.011,9.995l-247.467,0l0,54.639l247.467,0c5.552,0 10.011,4.476 10.011,9.995c0,5.525 -4.459,9.995 -10.011,9.995l-247.467,0l0,54.64l247.467,0c5.552,0 10.011,4.475 10.011,9.994c0,5.525 -4.459,9.995 -10.011,9.995l-247.467,0l0,54.64l247.467,0c5.552,0 10.011,4.476 10.011,9.989c0,5.525 -4.459,10.001 -10.011,10.001l-247.467,0l0,121.933l247.467,0c5.552,0 10.011,4.476 10.011,9.995c0,5.519 -4.459,9.995 -10.011,9.995l-247.467,0l0,64.634l247.467,0c5.552,0 10.011,4.476 10.011,9.995c0,5.524 -4.459,10 -10.011,10l-247.467,0l0,64.608l247.467,0c5.552,0 10.011,4.502 10.011,10.016c0,5.514 -4.459,10.011 -10.011,10.011l-247.467,0l0,51.002l229.467,0c5.189,0 10.173,-0.768 14.876,-2.227Z" style="fill:#f2f2f2;fill-rule:nonzero;"/><path d="M509.265,144.573c1.335,0 2.189,-0.438 2.552,-0.703l0,-10.119l98.559,0c5.552,0 8.838,-2.232 9.282,-3.167l-0.038,-10.752l-119.761,0l0,24.741l9.406,0Z" style="fill:#f2f2f2;fill-rule:nonzero;"/><path d="M635.593,130.908c0,10.568 -11.07,18.838 -25.217,18.838l-83.597,0c-2.476,6.363 -9.287,10.822 -17.514,10.822l-9.406,0l0,19.985l140.599,0c6.282,0 11.39,-5.098 11.39,-11.39l0,-49.331l-16.255,0l0,11.076Z" style="fill:#f2f2f2;fill-rule:nonzero;"/><path d="M722.147,234.441l57.164,0l-107.149,-114.609l0,64.623c0,27.612 22.379,49.986 49.985,49.986Z" style="fill:#ccc;fill-rule:nonzero;"/><path d="M241.203,269.777c0,5.524 4.46,9.995 9.973,9.995l248.683,0l0,-19.99l-248.683,0c-5.513,0 -9.973,4.476 -9.973,9.995Z" style="fill-rule:nonzero;"/><path d="M747.326,279.772c5.552,0 10.011,-4.471 10.011,-9.995c0,-5.519 -4.459,-9.995 -10.011,-9.995l-247.467,0l0,19.99l247.467,0Z" style="fill-rule:nonzero;"/><path d="M241.203,344.406c0,5.525 4.46,9.995 9.973,9.995l248.683,0l0,-19.99l-248.683,0c-5.513,0 -9.973,4.476 -9.973,9.995Z" style="fill-rule:nonzero;"/><path d="M747.326,354.401c5.552,0 10.011,-4.47 10.011,-9.995c0,-5.519 -4.459,-9.995 -10.011,-9.995l-247.467,0l0,19.99l247.467,0Z" style="fill-rule:nonzero;"/><path d="M241.203,419.035c0,5.525 4.46,9.995 9.973,9.995l248.683,0l0,-19.989l-248.683,0c-5.513,0 -9.973,4.475 -9.973,9.994Z" style="fill-rule:nonzero;"/><path d="M747.326,429.03c5.552,0 10.011,-4.47 10.011,-9.995c0,-5.519 -4.459,-9.994 -10.011,-9.994l-247.467,0l0,19.989l247.467,0Z" style="fill-rule:nonzero;"/><path d="M241.203,635.588c0,5.519 4.46,9.995 9.973,9.995l248.683,0l0,-19.99l-248.683,0c-5.513,0 -9.973,4.476 -9.973,9.995Z" style="fill-rule:nonzero;"/><path d="M747.326,645.583c5.552,0 10.011,-4.476 10.011,-9.995c0,-5.519 -4.459,-9.995 -10.011,-9.995l-247.467,0l0,19.99l247.467,0Z" style="fill-rule:nonzero;"/><path d="M241.203,720.212c0,5.524 4.46,10 9.973,10l248.683,0l0,-19.995l-248.683,0c-5.513,0 -9.973,4.476 -9.973,9.995Z" style="fill-rule:nonzero;"/><path d="M747.326,730.212c5.552,0 10.011,-4.476 10.011,-10c0,-5.519 -4.459,-9.995 -10.011,-9.995l-247.467,0l0,19.995l247.467,0Z" style="fill-rule:nonzero;"/><path d="M241.203,804.836c0,5.514 4.46,10.011 9.973,10.011l248.683,0l0,-20.027l-248.683,0c-5.513,0 -9.973,4.502 -9.973,10.016Z" style="fill-rule:nonzero;"/><path d="M747.326,814.847c5.552,0 10.011,-4.497 10.011,-10.011c0,-5.514 -4.459,-10.016 -10.011,-10.016l-247.467,0l0,20.027l247.467,0Z" style="fill-rule:nonzero;"/><path d="M241.203,493.659c0,5.525 4.46,10.001 9.973,10.001l248.683,0l0,-19.99l-248.683,0c-5.513,0 -9.973,4.476 -9.973,9.989Z" style="fill-rule:nonzero;"/><path d="M747.326,503.66c5.552,0 10.011,-4.476 10.011,-10.001c0,-5.513 -4.459,-9.989 -10.011,-9.989l-247.467,0l0,19.99l247.467,0Z" style="fill-rule:nonzero;"/><rect x="360.234" y="105.269" width="16.011" height="14.568" style="fill:#646872;"/><rect x="619.62" y="105.269" width="15.973" height="14.568" style="fill:#646872;"/><path d="M477.356,144.573c-1.335,0 -2.189,-0.438 -2.551,-0.703l0,-10.119l-89.317,0c-5.594,0 -8.875,-2.232 -9.243,-2.843l0,-11.076l-16.011,0l0,11.076c0,10.568 11.108,18.838 25.254,18.838l74.316,0c2.514,6.363 9.325,10.822 17.552,10.822l22.341,0l0,-15.995l-22.341,0Z" style="fill:#646872;fill-rule:nonzero;"/><rect x="499.697" y="144.573" width="0.162" height="15.995" style="fill:#646872;"/><path d="M610.376,133.751l-98.559,0l0,10.119c-0.363,0.265 -1.217,0.703 -2.552,0.703l-9.406,0l0,15.995l9.406,0c8.227,0 15.038,-4.459 17.514,-10.822l83.597,0c14.147,0 25.217,-8.27 25.217,-18.838l0,-11.076l-15.973,0l0.038,10.752c-0.444,0.935 -3.73,3.167 -9.282,3.167Z" style="fill:#646872;fill-rule:nonzero;"/><path d="M376.245,103.21l0,2.059l6.649,0c4.622,0 8.351,-3.73 8.351,-8.335c0,-4.6 -3.729,-8.336 -8.351,-8.336l-29.309,0c-4.584,0 -8.314,3.736 -8.314,8.336c0,4.605 3.73,8.335 8.314,8.335l6.649,0l0,-2.059l16.011,0Z" style="fill:#505359;fill-rule:nonzero;"/><rect x="360.234" y="103.21" width="16.011" height="2.06" style="fill:#505359;"/><path d="M635.593,103.21l0,2.059l6.649,0c4.622,0 8.352,-3.73 8.352,-8.335c0,-4.6 -3.73,-8.336 -8.352,-8.336l-29.314,0c-4.579,0 -8.309,3.736 -8.309,8.336c0,4.605 3.73,8.335 8.309,8.335l6.692,0l0,-2.059l15.973,0Z" style="fill:#505359;fill-rule:nonzero;"/><rect x="619.62" y="103.21" width="15.973" height="2.06" style="fill:#505359;"/></g></g></svg>